<?xml version="1.0" encoding="iso-8859-1"?>
<!-- Generator: Adobe Illustrator 16.0.0, SVG Export Plug-In . SVG Version: 6.00 Build 0)  -->
<!DOCTYPE svg PUBLIC "-//W3C//DTD SVG 1.1//EN" "http://www.w3.org/Graphics/SVG/1.1/DTD/svg11.dtd">
<svg version="1.1" id="Capa_1" xmlns="http://www.w3.org/2000/svg" xmlns:xlink="http://www.w3.org/1999/xlink" x="0px" y="0px"
	 width="94.256px" height="94.255px" viewBox="0 0 94.256 94.255" style="enable-background:new 0 0 94.256 94.255;"
	 xml:space="preserve">
<g>
	<g>
		<path d="M93.967,17.569c-0.107,0.007-0.212,0.022-0.3,0.068c-1.546,0.801-3.192,1.148-4.923,1.129
			c-0.537-0.006-1.075-0.081-1.609-0.06c-0.625,0.025-1.188,0.052-1.732-0.42c-0.413-0.357-0.987-0.562-1.522-0.736
			c-1.239-0.404-1.248-0.379-0.881-1.625c0.177-0.6,0.362-1.198,0.521-1.803c0.026-0.098,0.033-0.202,0.033-0.306
			c0.002-0.171-0.043-0.336-0.098-0.369s-0.211,0.045-0.348,0.174c-0.275,0.26-0.549,0.521-0.834,0.769
			c-0.618,0.539-1.228,1.093-1.887,1.575c-0.182,0.132-0.559,0.103-0.804,0.021c-0.638-0.213-1.231-0.569-1.876-0.74
			c-3.238-0.859-6.555-0.924-9.875-0.863c-0.154,0.003-0.307,0.116-0.467,0.24c-0.149,0.116-0.43,0.201-0.618,0.197
			c-0.688-0.013-1.458-0.052-2.216,0.028c-0.602,0.064-1.174,0.381-1.77,0.544c-1.604,0.437-3.234,0.786-4.814,1.296
			c-1.323,0.427-2.702,0.858-3.852,1.602c-1.414,0.915-2.839,1.537-4.51,1.773c-1.789,0.253-0.547,0.623-0.547,0.623
			c-0.475,0.099-0.952,0.314-1.445,0.416c-0.185,0.038-0.244,0.189-0.131,0.26c0.112,0.071,0.187,0.214,0.167,0.281
			c-0.02,0.067-0.187,0.111-0.373,0.08c-0.917-0.154-1.833-0.301-2.744-0.454c-0.186-0.031-0.201,0.017-0.033,0.104
			c0.699,0.361,1.428,0.74,2.235,1.157c0.168,0.087,0.154,0.191-0.03,0.232c-0.265,0.059-0.515,0.115-0.822,0.184
			c-0.184,0.041-0.181,0.067,0.008,0.058c0.522-0.026,0.947-0.047,1.35-0.067c0.188-0.009,0.353,0.038,0.367,0.106
			c0.014,0.068-0.114,0.186-0.286,0.264c-1.604,0.725-3.199,1.447-4.664,2.109c-0.172,0.078-0.159,0.124,0.028,0.103
			c0.049-0.005,0.101-0.011,0.155-0.017c0.188-0.021,0.351-0.01,0.364,0.025s-0.111,0.133-0.278,0.221
			c-0.66,0.348-1.32,0.695-1.98,1.043c-0.167,0.088-0.287,0.186-0.269,0.22c0.018,0.034,0.186,0.051,0.374,0.039l0.196-0.012
			c0.188-0.012,0.224,0.078,0.07,0.187c-0.409,0.288-0.841,0.479-1.288,0.631c-2.541,0.858-5.087,1.7-7.632,2.547
			c-0.078,0.026-0.198,0.022-0.229,0.073c-0.474,0.787-1.128,0.352-1.697,0.219c-0.439-0.102-0.859-0.286-1.282-0.456
			c-0.175-0.071-0.334-0.085-0.354-0.037c-0.02,0.048,0.103,0.152,0.274,0.232c0.577,0.269,1.154,0.537,1.732,0.806
			c0.171,0.08,0.24,0.28,0.152,0.447c-0.508,0.957-0.622,0.936-1.931,0.775c-0.348-0.043-0.699-0.058-1.007-0.072
			c-0.188-0.008-0.401,0.126-0.429,0.312c-0.086,0.562,0.274,0.767,0.654,0.949c0.17,0.081,0.276,0.313,0.144,0.447
			c-0.197,0.201-0.625,0.169-2.264-0.004c-0.188-0.02-0.191,0.001-0.008,0.046c1.395,0.347,2.709,0.674,4.019,1
			c0.183,0.046,0.323,0.143,0.312,0.218c-0.011,0.075-0.101,0.2-0.2,0.279c-0.099,0.079-0.028,0.166,0.158,0.195
			c0.314,0.048,0.628,0.096,0.942,0.144c0.187,0.029,0.34,0.108,0.342,0.177s-0.147,0.149-0.333,0.179
			c-0.489,0.078-0.978,0.156-1.467,0.234c-0.186,0.03-0.339,0.081-0.342,0.115c-0.003,0.034,0.147,0.076,0.335,0.093
			c0.423,0.039,0.846,0.077,1.269,0.116c0.188,0.017,0.347,0.09,0.356,0.162c0.009,0.072-0.13,0.176-0.31,0.232
			c-0.556,0.173-1.111,0.346-1.667,0.519c-0.18,0.056-0.306,0.138-0.282,0.184s-0.107,0.108-0.293,0.141
			c-0.374,0.064-0.744,0.128-1.097,0.189c-0.186,0.032-0.21,0.144-0.04,0.226c0.965,0.465,2.008,0.21,3.191,0.065
			c0.187-0.023,0.208,0.04,0.044,0.135c-1.531,0.897-2.886,1.689-4.217,2.469c-0.163,0.095-0.146,0.206,0.039,0.248
			c0.075,0.017,0.15,0.034,0.226,0.052c0.184,0.042,0.327,0.124,0.319,0.184c-0.007,0.06-0.165,0.135-0.351,0.167
			c-0.722,0.125-1.453,0.252-2.251,0.391c-0.186,0.032-0.184,0.07,0.004,0.084c0.49,0.036,0.918,0.068,1.334,0.098
			c0.188,0.014,0.34,0.064,0.339,0.112s-0.151,0.118-0.336,0.156c-0.19,0.039-0.382,0.078-0.575,0.118
			c-0.185,0.038-0.262,0.11-0.173,0.161c0.089,0.051,0.156,0.143,0.149,0.205c-0.007,0.062-0.166,0.119-0.354,0.128
			c-1.123,0.053-2.245,0.106-3.368,0.159c-0.188,0.009-0.213,0.1-0.043,0.182c0.417,0.201,0.845,0.297,1.256,0.442
			c0.212,0.075,0.458,0.283,0.516,0.482c0.02,0.069-0.04,0.161-0.112,0.248c-0.1,0.12-0.092,0.334,0.022,0.484
			c0.182,0.238,0.387,0.508,0.617,0.809c0.114,0.15,0.054,0.279-0.134,0.287c-0.058,0.003-0.113,0.005-0.165,0.007
			c-0.188,0.008-0.349,0.051-0.359,0.094c-0.01,0.043,0.126,0.131,0.303,0.196c0.722,0.263,1.441,0.526,2.149,0.784
			c0.177,0.064,0.181,0.177,0.008,0.253c-0.033,0.014-0.066,0.026-0.102,0.042c-0.173,0.076-0.16,0.122,0.028,0.111
			c0.185-0.011,0.355-0.03,0.521-0.039c0.188-0.011,0.236,0.068,0.098,0.196c-1.031,0.956-2.262,1.804-3.6,1.859
			c-0.188,0.008-0.188,0.411,0,0.411h1.339c0.091,0,0.152-0.077,0.182-0.147c0.018,0.009,0.02,0.009,0.044,0.021
			c0.101,0.051,0.2-0.035,0.293-0.047c0.5-0.062,0.995-0.23,1.49-0.33c0.185-0.037,0.342-0.068,0.351-0.031
			c0.009,0.036-0.129,0.099-0.308,0.159c-0.276,0.093-0.563,0.181-0.89,0.291c-0.179,0.06-0.171,0.115,0.017,0.128
			c0.26,0.018,0.494,0.032,0.745,0.049c0.188,0.013,0.219,0.115,0.069,0.23c-0.095,0.071-0.187,0.141-0.289,0.219
			c-0.15,0.114-0.126,0.159,0.053,0.1c0.225-0.074,0.417-0.138,0.598-0.196c0.179-0.06,0.227,0.012,0.089,0.14
			c-0.919,0.854-2.309,1.058-3.083,2.161c-0.108,0.153-0.031,0.25,0.15,0.198c0.191-0.055,0.37-0.105,0.544-0.155
			c0.182-0.052,0.339-0.06,0.353-0.018c0.013,0.042-0.106,0.157-0.267,0.258c-0.698,0.432-1.396,0.864-2.094,1.297
			c-0.16,0.099-0.271,0.215-0.248,0.258s0.185,0.021,0.359-0.05l1.766-0.717c0.175-0.07,0.323-0.11,0.331-0.09
			c0.007,0.021-0.111,0.126-0.266,0.234c-0.939,0.659-1.886,1.322-2.91,2.04c-0.154,0.107-0.127,0.187,0.06,0.157
			c1.072-0.173,2.043-0.754,3.124-0.363c0.177,0.063,0.193,0.237,0.048,0.357c-0.086,0.07-0.167,0.138-0.248,0.204
			c-0.146,0.12-0.112,0.197,0.075,0.173c0.286-0.039,0.555-0.075,0.818-0.11c0.187-0.025,0.35-0.003,0.364,0.048
			s-0.093,0.19-0.239,0.311c-0.096,0.077-0.191,0.155-0.287,0.233c-0.146,0.119-0.25,0.25-0.23,0.292s0.18,0.028,0.358-0.032
			c0.384-0.13,0.769-0.259,1.153-0.389c0.179-0.06,0.347-0.06,0.375,0.001c0.028,0.062-0.084,0.182-0.25,0.271
			c-0.937,0.502-1.874,1.003-2.811,1.505c-0.166,0.089-0.293,0.18-0.283,0.202c0.01,0.021,0.16-0.016,0.335-0.085
			c1.089-0.434,2.191-0.871,3.431-1.363c0.175-0.07,0.237,0.004,0.138,0.165c-0.127,0.207-0.228,0.37-0.317,0.515
			c-0.099,0.161-0.148,0.319-0.111,0.354c0.038,0.034,0.208,0,0.379-0.078c0.771-0.352,1.542-0.701,2.312-1.053
			c0.171-0.077,0.326-0.113,0.344-0.079c0.018,0.033-0.057,0.185-0.169,0.337c-0.113,0.153-0.229,0.311-0.349,0.475
			c-0.112,0.152-0.065,0.207,0.104,0.123c0.494-0.245,0.955-0.474,1.41-0.7c0.169-0.084,0.342-0.117,0.387-0.073
			c0.045,0.045,0.034,0.225-0.024,0.404c-0.039,0.124-0.086,0.238-0.17,0.311c-1.412,1.219-3.563,1.688-4.352,3.521
			C19.854,77.774,0,66.945,0,66.945s6.869,21.57,30.944,10.914C55.02,67.202,78.066,78.95,78.066,78.95
			c5.65-9.181-0.381-17.568-0.381-17.568c-1.344-1.974-2.545-4.006-2.84-6.408c-0.265-2.141-0.531-4.306-0.479-6.452
			c0.034-1.436,0.612-2.86,0.963-4.285c0.144-0.585,0.59-0.776,1.103-0.573c0.326,0.129,0.657,0.406,0.838,0.705
			c0.688,1.14,1.133,2.485,2.012,3.437c1.046,1.138,1.482,2.268,1.275,3.762c-0.156,1.14,0.828,2.518,1.951,2.65
			c0.813,0.097,1.563,0.16,2.172,0.78c0.103,0.104,0.367,0.062,0.559,0.064c0.433,0.005,0.875-0.064,1.296,0.003
			c0.897,0.142,1.751,0.173,2.547-0.385c0.155-0.107,0.144-0.301-0.011-0.41c-0.07-0.052-0.139-0.101-0.209-0.149
			c-0.152-0.11-0.143-0.271,0.025-0.36c0.797-0.425,1.549-0.813,2.275-1.243c0.154-0.096,0.253-0.393,0.253-0.596
			c0-0.018-0.006-0.038-0.017-0.059c-0.016-0.031-0.019-0.207-0.075-0.384c-0.033-0.104-0.087-0.202-0.162-0.292
			c-0.099-0.117-0.195-0.233-0.288-0.353c-0.116-0.148-0.1-0.391,0.025-0.532c0.218-0.242,0.434-0.485,0.623-0.757
			c0.027-0.038,0.05-0.076,0.069-0.114c0.033-0.065,0.103-0.18,0.148-0.26s0.125-0.235,0.155-0.353
			c0.019-0.067,0.028-0.14,0.028-0.217c0-0.069-0.01-0.14-0.028-0.208c-0.031-0.112-0.112-0.345-0.151-0.529
			c-0.116-0.548-0.248-1.199-0.433-1.836c-1.088-3.764-1.724-7.598-1.781-11.518c-0.006-0.44,0.189-0.88,0.254-1.325
			c0.143-0.976,0.507-2,0.341-2.926c-0.344-1.92-0.958-3.794-1.493-5.678c-0.354-1.242-0.111-2.081,0.967-2.786
			c0.616-0.404,1.26-0.794,1.941-1.065c1.252-0.498,1.963-1.511,2.641-2.569c0.053-0.082,0.068-0.188,0.075-0.299
			C94.268,17.688,94.137,17.557,93.967,17.569z"/>
	</g>
</g>
<g>
</g>
<g>
</g>
<g>
</g>
<g>
</g>
<g>
</g>
<g>
</g>
<g>
</g>
<g>
</g>
<g>
</g>
<g>
</g>
<g>
</g>
<g>
</g>
<g>
</g>
<g>
</g>
<g>
</g>
</svg>
