<?xml version="1.0" encoding="iso-8859-1"?>
<!-- Generator: Adobe Illustrator 16.0.0, SVG Export Plug-In . SVG Version: 6.00 Build 0)  -->
<!DOCTYPE svg PUBLIC "-//W3C//DTD SVG 1.1//EN" "http://www.w3.org/Graphics/SVG/1.1/DTD/svg11.dtd">
<svg version="1.1" id="Capa_1" xmlns="http://www.w3.org/2000/svg" xmlns:xlink="http://www.w3.org/1999/xlink" x="0px" y="0px"
	 width="37.212px" height="37.212px" viewBox="0 0 37.212 37.212" style="enable-background:new 0 0 37.212 37.212;"
	 xml:space="preserve">
<g>
	<path d="M16.395,13.598c0.822,0.275,2.662,0.118,3.544,0.224c1.8,0.215,3.318-0.644,4.087-1.405
		c4.222-4.191,6.703-3.672,6.703-3.672l0.604-1.532l0.545,0.926l0.318-0.798l0.225,1.277l2.905,3.48c0,0-1.31-0.958-0.032,0.128
		c1.277,1.084,0.353,2.17,0.353,2.17c-0.927,0.862-2.49-0.861-2.49-0.861c-1.533-0.256-1.979-0.958-1.979-0.958
		c-0.288,1.565-2.776,3.64-2.776,3.64c-0.799,1.564-0.226,2.81-0.226,2.81c0.83,0,2.332,0.991,2.332,0.991
		c1.31-0.033,2.17,0.637,2.17,0.637l4.216,3.641c0.718,0.721,0,0.798,0,0.798l-0.8,0.032c-1.116,0-0.732-1.148-0.732-1.148
		c-0.99,0-1.884-1.627-1.884-1.627c-0.769-0.416-2.107-0.959-2.107-0.959c-2.459-0.799-3.063-0.191-3.063-0.191
		c0.67,0.639,2.268,4.023,2.268,4.023c0.574,1.276,3.416,3.575,3.416,3.575c1.147,1.056,0.063,1.022,0.063,1.022h-1.184
		c-1.053,0-0.51-1.182-0.51-1.182l-0.383,0.03c-0.862,0-1.056-1.276-1.056-1.276c-0.576-0.447-4.471-5.396-4.471-5.396
		c-0.671-1.085-1.214-0.894-1.214-0.894c-4.692,1.18-8.108-0.32-8.108-0.32c-2.363-1.276-2.971-0.637-2.971-0.637
		c-0.511,2.01-3.447,3.224-3.447,3.224c-1.5,0.67-1.725,2.427-1.725,2.427L9.017,28c0.606,0.064,1.725,1.184,1.725,1.184
		c0.926,0.926-0.734,0.83-0.799,0.797c-1.059-0.528-0.732-0.67-0.732-0.67c0-0.353-0.129-0.287-0.129-0.287
		c-1.436-0.319-0.958-1.021-0.958-1.021l0.032-2.842c0.032-1.5,0.542-2.012,0.542-2.012c1.149-0.605,1.149-1.053,1.149-1.053
		c-0.574-0.385-2.107,0.67-2.107,0.67c-1.945,0.86-3.959,3-3.959,3c-0.382,1.117-1.661,0.832-1.661,0.832
		c-0.35,0.254-0.925,0.445-0.925,0.445c-1.947,0.447-0.928-0.732-0.928-0.732c0.703-1.086,1.533-0.896,1.533-0.896
		c0.064,0.319,0.543,0.127,0.543,0.127c0.129-0.511,2.746-2.36,2.746-2.36c0.574-1.15,2.362-2.236,2.362-2.236
		c2.235-1.34,1.979-2.042,1.979-2.042c-0.063-2.107,0.701-3.129,0.701-3.129c0.769-0.958,0.065-0.767,0.065-0.767
		c-1.979,1.916-8.621,3.64-8.621,3.64c2.235-5.938,9.705-4.853,9.705-4.853C13.457,12.544,15.18,13.194,16.395,13.598z"/>
</g>
<g>
</g>
<g>
</g>
<g>
</g>
<g>
</g>
<g>
</g>
<g>
</g>
<g>
</g>
<g>
</g>
<g>
</g>
<g>
</g>
<g>
</g>
<g>
</g>
<g>
</g>
<g>
</g>
<g>
</g>
</svg>
