<?xml version="1.0" encoding="iso-8859-1"?>
<!-- Generator: Adobe Illustrator 16.0.0, SVG Export Plug-In . SVG Version: 6.00 Build 0)  -->
<!DOCTYPE svg PUBLIC "-//W3C//DTD SVG 1.1//EN" "http://www.w3.org/Graphics/SVG/1.1/DTD/svg11.dtd">
<svg version="1.1" id="Capa_1" xmlns="http://www.w3.org/2000/svg" xmlns:xlink="http://www.w3.org/1999/xlink" x="0px" y="0px"
	 width="95.006px" height="95.005px" viewBox="0 0 95.006 95.005" style="enable-background:new 0 0 95.006 95.005;"
	 xml:space="preserve">
<g>
	<g>
		<path d="M65,58.232v0.062l12,3.051v11.457c0,2.402,2.086,4.353,4.486,4.352c2.402,0,4.514-1.949,4.514-4.352V54.654L69.357,50.31
			L65,58.232z"/>
		<path d="M92.695,20.715l-12.908-8.583l-3.428-3.343l-1.785-4.063l-2.014,8.15L53.505,32.732H16.177h-5.111
			c0,0-11.066-0.167-11.066,10.508v16.492h7c0,0,0-14.185,0-16.335c0-1.954,1.343-4.881,3.885-5.398l0.358,17.941L8,61.583v24.342
			c0,2.404,2.109,4.354,4.511,4.354c2.401,0,4.489-1.949,4.489-4.354V64.848l3.825-7.116H56v28.195c0,2.404,1.587,4.353,3.988,4.353
			c2.402,0,4.012-1.948,4.012-4.353V57.901l15.173-30.703l10.478,1.994c1.834,0.341,3.789-0.498,4.761-2.232
			C95.662,24.772,94.871,21.961,92.695,20.715z"/>
	</g>
</g>
<g>
</g>
<g>
</g>
<g>
</g>
<g>
</g>
<g>
</g>
<g>
</g>
<g>
</g>
<g>
</g>
<g>
</g>
<g>
</g>
<g>
</g>
<g>
</g>
<g>
</g>
<g>
</g>
<g>
</g>
</svg>
