<?xml version="1.0" encoding="iso-8859-1"?>
<!-- Generator: Adobe Illustrator 16.0.0, SVG Export Plug-In . SVG Version: 6.00 Build 0)  -->
<!DOCTYPE svg PUBLIC "-//W3C//DTD SVG 1.1//EN" "http://www.w3.org/Graphics/SVG/1.1/DTD/svg11.dtd">
<svg version="1.1" id="Capa_1" xmlns="http://www.w3.org/2000/svg" xmlns:xlink="http://www.w3.org/1999/xlink" x="0px" y="0px"
	 width="96.942px" height="96.942px" viewBox="0 0 96.942 96.942" style="enable-background:new 0 0 96.942 96.942;"
	 xml:space="preserve">
<g>
	<g>
		<path d="M23.288,53.965c-0.446-0.188-0.946-0.245-1.408-0.121l-11.246,2.988c-0.963,0.26-1.848,1.278-1.848,2.276v14.593
			c0,2.172,1.842,3.934,4.012,3.934c2.17,0,3.988-1.764,3.988-3.934c0,0,0-5.578,0-8.546c0-0.998,0.828-2.017,1.791-2.274
			l6.814-1.82c0.444-0.119,0.855-0.229,1.163-0.316c-0.071-0.236-0.147-0.455-0.236-0.635L23.288,53.965z"/>
		<path d="M61.746,63.313H50.193l-1.557,0.43c-0.962,0.266-1.991,1.252-2.298,2.201l-2.497,7.729c0.81,0.367,1.345,0.61,1.346,0.61
			c1.199,0.548,2.113,1.529,2.573,2.763c0.459,1.232,0.41,2.569-0.138,3.765c-0.232,0.509-0.554,0.959-0.929,1.351
			c1.632-0.074,3.113-1.154,3.595-2.81c0,0,1.564-5.354,2.396-8.203c0.28-0.958,1.169-2.201,1.983-2.776l6.721-4.74
			C61.55,63.519,61.66,63.415,61.746,63.313z"/>
		<path d="M96.703,59.114c-1.66,1.376-3.118,2.063-4.346,2.063c-1.48,0-2.625-0.998-3.389-2.989
			c-0.091-0.232,0.048-0.453,0.296-0.489c2.918-0.426,3.892-0.821,4.561-1.952c0.113-0.192,0.034-0.33-0.16-0.33
			c-0.021,0-0.048,0.002-0.073,0.006c-0.352,0.054-0.696,0.092-1.03,0.092c-0.879,0-1.683-0.264-2.294-1.182
			c-0.634-0.951-1.247-1.916-1.832-2.824c-0.115-0.18-0.068-0.299,0.103-0.299c0.028,0,0.061,0.004,0.096,0.011
			c0.573,0.112,1.177,0.198,1.811,0.198c0.764,0,1.572-0.125,2.433-0.481c0.23-0.095,0.213-0.222-0.029-0.276
			c-2.988-0.684-4.956-2.562-6.64-4.667c-3.223-4.035-10.63-5.588-10.781-5.62c-5.046-1.041-11.176-1.513-16.941-1.688
			c0.544-2,0.342-4.215-0.825-5.887c-0.06-0.086-0.112-0.146-0.153-0.146c-0.056,0-0.085,0.038-0.075,0.179
			c0.246,3.176-0.497,5.028-2.162,5.646c-0.944-0.01-1.869-0.164-2.767-0.164c-0.081,0-0.162,0-0.243,0
			c-0.225,0-0.316-0.147-0.209-0.36c1.318-2.597,1.556-3.459,1.023-4.643c-0.05-0.111-0.12-0.165-0.19-0.165
			c-0.073,0-0.148,0.057-0.203,0.169c-0.555,1.114-1.239,2.062-2.681,2.062c-0.029,0-0.062,0-0.093-0.001
			c-1.127-0.031-2.255-0.085-3.322-0.131c-0.245-0.01-0.297-0.153-0.119-0.323c0.92-0.88,1.816-1.94,2.189-3.583
			c0.033-0.148,0.005-0.226-0.065-0.226c-0.044,0-0.104,0.031-0.174,0.094c-2.045,1.832-4.423,2.223-6.811,2.583
			c1.096-1.365,1.746-3.065,1.605-4.784c-0.011-0.13-0.048-0.195-0.097-0.195c-0.043,0-0.096,0.052-0.146,0.156
			c-1.255,2.595-2.694,3.902-4.253,3.902c-0.982,0-2.012-0.519-3.074-1.561c-0.175-0.173-0.142-0.426,0.065-0.56
			c2.446-1.58,3.159-2.333,3.296-3.625c0.018-0.166-0.053-0.259-0.163-0.259c-0.053,0-0.114,0.021-0.181,0.064
			c-0.67,0.442-1.354,0.797-2.09,0.797c-0.428,0-0.873-0.12-1.343-0.411c-0.959-0.595-1.905-1.209-2.804-1.785
			c-0.208-0.133-0.181-0.282,0.059-0.339c1.238-0.298,2.547-0.762,3.696-1.994c0.14-0.15,0.116-0.247-0.034-0.247
			c-0.03,0-0.065,0.004-0.106,0.012c-0.591,0.122-1.16,0.175-1.713,0.175c-2.224,0-4.179-0.866-6.163-1.645
			c-2.062-0.81-4.171-1.224-6.312-1.224c-0.464,0-0.93,0.019-1.397,0.059c-0.271-0.511-0.491-1.039-0.601-1.483l-0.953-3.856
			c-0.124-0.503-0.323-0.757-0.543-0.757c-0.203,0-0.424,0.218-0.617,0.657l-0.441,1.009c-0.246,0.557-1.022,1.574-1.738,2.271
			l-0.51,0.497c-0.714,0.697-1.967,1.71-2.799,2.263l-10.16,6.756c-1.967,1.126-2.681,3.667-1.551,5.644
			c0.749,1.337,2.144,2.085,3.566,2.085c0.246,0,0.492-0.022,0.736-0.068l7.692-1.464c0.125-0.024,0.252-0.035,0.381-0.035
			c0.882,0,1.81,0.537,2.195,1.318l12.11,24.506c0.443,0.895,0.721,2.426,0.619,3.418l-1.078,10.646
			c-0.102,0.993,0.554,2.138,1.461,2.552l13.271,6.072c0.526,0.24,1.078,0.357,1.622,0.357c0.807,0,1.591-0.254,2.25-0.709
			c0.567-0.39,1.044-0.926,1.35-1.596c0.903-1.973,0.032-4.287-1.941-5.188c0,0-0.492-0.221-1.25-0.561
			c-1.679-0.755-4.664-2.099-6.522-2.949c-0.907-0.414-1.555-1.465-1.448-2.457l0.672-5.733c0.108-0.993,1.005-1.208,2.002-1.208
			h25.882c0.998,0,1.246-0.006,0.555,0.713l-2.538,2.163c-0.691,0.719-0.833,1.938-0.315,2.792l7.506,12.359
			c0.74,1.224,2.034,1.896,3.34,1.896c0.664,0,1.332-0.174,1.932-0.537c1.781-1.077,2.328-3.47,1.212-5.313l-4.379-7.278
			c-0.515-0.854-0.935-1.562-0.935-1.574s0.503-0.651,1.135-1.425l2.896-3.572c0.632-0.773,1.129-2.209,1.147-3.207l0.211-11.315
			c0,0,0.114-1.723,0.166-2.662c1.473,1.124,2.652,1.545,3.556,3.219c0.678,1.257,1.312,2.556,1.78,3.9
			c0.997,2.856,1.806,4.78,2.841,7.623c0.346,0.95,0.979,1.956,1.77,2.557c1.105,0.839,2.45,1.22,3.819,1.22
			c2.985,0,6.092-1.809,7.105-4.617c0.054-0.146,0.034-0.226-0.035-0.226C96.834,59.026,96.774,59.055,96.703,59.114z"/>
	</g>
</g>
<g>
</g>
<g>
</g>
<g>
</g>
<g>
</g>
<g>
</g>
<g>
</g>
<g>
</g>
<g>
</g>
<g>
</g>
<g>
</g>
<g>
</g>
<g>
</g>
<g>
</g>
<g>
</g>
<g>
</g>
</svg>
